<svg xmlns="http://www.w3.org/2000/svg" width="512" height="512" viewBox="0 0 512 512" version="1.1">
	<path d="M 238.256 96.979 C 235.517 98.141, 232.009 103.661, 232.004 106.816 C 232.002 108.089, 232.563 110.114, 233.250 111.316 C 234.193 112.963, 234.623 127.504, 235 170.500 C 235.275 201.850, 235.445 227.630, 235.379 227.788 C 235.312 227.946, 233.737 225.701, 231.879 222.798 C 226.753 214.792, 218.430 204.618, 204.930 189.859 C 175.167 157.317, 158.202 131.080, 154.558 111.957 C 152.609 101.731, 150.345 99.643, 140.747 99.217 C 135.250 98.974, 132.655 99.331, 130 100.698 C 125.156 103.192, 122.726 108.225, 123.577 114 C 123.942 116.475, 124.424 150.900, 124.648 190.500 C 125.020 256.063, 124.908 262.832, 123.392 266.216 C 119.815 274.198, 124.192 282.018, 133.333 283.978 C 147.721 287.064, 157.073 278.730, 152.713 266.707 C 151.451 263.224, 151.087 253.470, 150.599 210 L 150.010 157.500 153.279 163.500 C 160.321 176.425, 172.981 192.952, 190.046 211.500 C 209.998 233.186, 223.059 251.069, 231.677 268.500 C 238.515 282.332, 243.085 285.860, 252.363 284.468 C 262.328 282.974, 266.011 277.470, 262.086 269.940 C 260.026 265.988, 260 265.015, 260 191.407 C 260 125.204, 260.182 116.319, 261.631 111.890 C 264.962 101.707, 260.615 96.658, 248.182 96.268 C 243.957 96.135, 239.490 96.455, 238.256 96.979 M 354.694 125.026 C 353.277 126.140, 351.807 128.053, 351.427 129.276 C 350.601 131.936, 295.141 214.445, 290.221 220.334 C 287.012 224.175, 286.818 224.813, 287.212 230.258 C 287.885 239.558, 292.891 242.470, 301.749 238.714 C 304.873 237.390, 348.270 229, 351.996 229 C 352.864 229, 353.031 233.572, 352.645 246.750 C 351.900 272.193, 351.850 271.266, 354.070 273.500 C 356.799 276.245, 364.975 276.151, 368.775 273.331 C 372.285 270.726, 373.798 265.096, 372.186 260.639 C 371.456 258.619, 371 251.159, 371 241.224 L 371 225.091 374.250 224.508 C 385.954 222.412, 386.545 222.386, 389.688 223.838 C 392.544 225.158, 393.138 225.140, 395.388 223.665 C 401.072 219.941, 401.476 203.931, 395.961 200.979 C 393.522 199.674, 389.663 199.737, 388.296 201.104 C 387.689 201.711, 384.336 202.820, 380.846 203.569 C 369.610 205.978, 370.780 210.340, 371.101 167.250 C 371.395 127.756, 371.256 126.278, 367.043 124.023 C 363.828 122.303, 357.503 122.816, 354.694 125.026 M 333.918 183.667 C 323.698 198.975, 314.572 212.679, 313.639 214.119 L 311.941 216.739 321.721 214.931 C 327.099 213.936, 335.870 212.345, 341.212 211.394 C 346.553 210.443, 351.398 209.372, 351.979 209.013 C 352.687 208.576, 352.946 199.720, 352.767 182.098 L 352.500 155.834 333.918 183.667 M 145 322.640 C 145 322.992, 145.787 323.855, 146.750 324.558 C 148.341 325.720, 148.525 328.646, 148.771 356.668 C 149.015 384.556, 148.871 387.834, 147.265 391 C 146.010 393.473, 144.903 394.422, 143.494 394.235 C 132.111 392.722, 131.526 392.748, 129.629 394.852 C 126.347 398.489, 128.169 400.317, 134.551 399.787 C 141.375 399.221, 147.119 395.489, 151.741 388.619 C 157.572 379.951, 158.282 376.019, 158.755 349.796 C 159.094 331.026, 159.476 325.850, 160.592 324.924 C 163.370 322.618, 161.871 322, 153.500 322 C 148.825 322, 145 322.288, 145 322.640 M 187 322.640 C 187 322.992, 187.787 323.855, 188.750 324.559 C 190.349 325.728, 190.500 328.405, 190.500 355.500 C 190.500 382.595, 190.349 385.272, 188.750 386.441 C 187.787 387.145, 187 388.008, 187 388.360 C 187 388.712, 197.125 389, 209.500 389 L 232 389 232.011 386.750 C 232.017 385.512, 232.301 382.700, 232.641 380.500 L 233.260 376.500 229.670 380.612 C 224.753 386.245, 222.070 387.132, 210.989 386.790 C 201.917 386.510, 201.561 386.412, 200.892 384 C 199.916 380.478, 199.949 335.536, 200.933 329.542 C 201.380 326.816, 202.253 324.416, 202.873 324.209 C 203.493 324.002, 204 323.421, 204 322.917 C 204 322.413, 200.175 322, 195.500 322 C 190.825 322, 187 322.288, 187 322.640 M 255.818 324.495 C 257.945 327.200, 258 327.989, 258 355.820 C 258 383.758, 257.953 384.421, 255.826 386.686 L 253.651 389 262.856 389 L 272.060 389 269.993 386.204 C 268.161 383.726, 267.958 382.219, 268.213 372.954 L 268.500 362.500 276.500 361.876 C 289.017 360.900, 294.953 357.528, 298.747 349.241 C 303.353 339.180, 300.192 330.198, 290.349 325.382 C 285.220 322.873, 283.627 322.633, 269.219 322.195 L 253.636 321.721 255.818 324.495 M 320 327.629 L 320 333.257 323.817 328.956 C 327.399 324.920, 328.016 324.626, 333.817 324.207 L 340 323.760 340 353.745 C 340 382.566, 339.920 383.833, 337.927 386.365 L 335.855 389 345.082 389 L 354.310 389 352.405 386.897 C 350.634 384.941, 350.480 382.651, 350.208 354.273 L 349.916 323.754 356.141 324.204 C 361.990 324.627, 362.595 324.913, 366.183 328.956 L 370 333.257 370 327.629 L 370 322 345 322 L 320 322 320 327.629 M 268.667 323.667 C 268.300 324.033, 268 332.583, 268 342.667 L 268 361 273.032 361 C 284.098 361, 289.264 355.903, 289.844 344.413 C 290.407 333.267, 286.149 326.792, 276.500 324.119 C 271.910 322.848, 269.618 322.715, 268.667 323.667" stroke="none" fill="black" fill-rule="evenodd"/>
</svg>